<svg xmlns="http://www.w3.org/2000/svg" viewBox="0 0 256 50" class="main"><g fill="#E20714" fill-rule="evenodd"><path d="M228 25l3-17h3l3 17h-9zm11.5 17h13l-7-40H220l-1 5h4.691L216 42h8.5l2.5-12h10.5l2 12zM199.01 1c5.052 0 10.03.654 12.99 1v40h-35v-5h5c-2.333-8.875-3.5-15.208-3.5-19 0-14.027 9.6-17 20.51-17zm-.357 4.999l-.344.001C190.84 6 188 8.695 188 16.5s2.788 17.316 3.5 20.5h7.5V6c-.233-.004-.463 0-.691 0zM145 2v40h27v-7h-14V24h12v-5h-12V9h14l2-7zm-24.5 0l-2 5h5.5v29c0 7.043-2 8.023-7 8h-3v4c0-.641 1.547 1 5.5 1 10.421 0 17.5-3.3 17.5-15.5V2h-16.5z"/><path d="M112 2v7H96v7c1.67-.444 3.838-.494 5.38-.5h.62c8.368 0 14 4.391 14 12.5 0 11.908-10.315 14.5-20 14.5-5.738 0-10.847-.138-13-.5V2h29zM99 20c-1.096 0-2.148.244-3 .5V38c4.714 0 8.5-4.297 8.5-9.5 0-5.898-2.237-8.5-5.5-8.5zm-45.5 1c0-8.784 4.504-13 9-13 4.912 0 9 3.932 9 12.5 0 9.141-3.39 14-9 14-4.32 0-9-4.386-9-13.5zM40 22c0 13.282 8.173 21 19.5 21s18-8.5 18-22.5C77.5 8.424 71.286 1 60.5 1 48.195 1 40 9.435 40 22zM34.594 2H0v40h12.973V8H21v34h13V7h4l2-5z"/></g></svg>